<svg width="20" height="21" viewBox="0 0 20 21" fill="none" xmlns="http://www.w3.org/2000/svg">
<g clip-path="url(#clip0_84_53)">
<path fill-rule="evenodd" clip-rule="evenodd" d="M16.6667 15.8696V1.95652C16.6667 1.1913 16.0667 0.565216 15.3333 0.565216H2.00001C1.26667 0.565216 0.666672 1.1913 0.666672 1.95652V15.8696C0.666672 16.6348 1.26667 17.2609 2.00001 17.2609H15.3333C16.0667 17.2609 16.6667 16.6348 16.6667 15.8696ZM2.00001 1.95652H15.3333V15.8696H2.00001V1.95652Z" fill="#D33091"/>
<path fill-rule="evenodd" clip-rule="evenodd" d="M18.6667 3.34782V18.6522C18.6667 19.0417 18.3733 19.3478 18 19.3478H3.33334V20.7391H18C19.1067 20.7391 20 19.807 20 18.6522V3.34782H18.6667Z" fill="#D33091"/>
</g>
<defs>
<clipPath id="clip0_84_53">
<rect width="19.3333" height="20.1739" fill="white" transform="translate(0.666672 0.565216)"/>
</clipPath>
</defs>
</svg>
