<svg width="22" height="9" viewBox="0 0 22 9" fill="none" xmlns="http://www.w3.org/2000/svg">
<path fill-rule="evenodd" clip-rule="evenodd" d="M1.71048 1.99808C1.50649 1.63563 1.65552 1.18147 2.02494 0.990395C2.39436 0.799323 2.84677 0.941787 3.06346 1.29679C5.02491 4.51027 7.99249 6.24447 10.8732 6.36664C10.8891 6.36658 10.9049 6.36648 10.9208 6.36632C13.8162 6.33828 16.7586 4.68082 18.6365 1.3358C18.84 0.973243 19.2867 0.813739 19.6628 0.990976C20.0389 1.16821 20.2043 1.61683 20.0133 1.98614C17.905 6.0621 14.4535 7.98308 10.9039 7.86881C10.884 7.86816 10.8641 7.86746 10.8441 7.86669C7.34272 7.86627 3.89971 5.88809 1.71048 1.99808Z" fill="white"/>
<path fill-rule="evenodd" clip-rule="evenodd" d="M0.999979 3.75969C0.79947 3.39725 0.930747 2.94088 1.2932 2.74037L2.04052 2.32694C2.40297 2.12643 2.85934 2.25771 3.05984 2.62016C3.26035 2.98261 3.12908 3.43897 2.76663 3.63948L2.0193 4.05291C1.65686 4.25342 1.20049 4.12214 0.999979 3.75969Z" fill="white"/>
<path fill-rule="evenodd" clip-rule="evenodd" d="M4.48129 7.23257C4.1405 6.99711 4.05511 6.52998 4.29056 6.18919L4.72333 5.56282C4.95878 5.22204 5.42592 5.13665 5.7667 5.3721C6.10749 5.60755 6.19288 6.07469 5.95743 6.41547L5.52466 7.04184C5.2892 7.38263 4.82207 7.46802 4.48129 7.23257Z" fill="white"/>
<path fill-rule="evenodd" clip-rule="evenodd" d="M10.8444 9C10.4302 9 10.0944 8.66422 10.0944 8.25V7.5562C10.0944 7.14199 10.4302 6.8062 10.8444 6.8062C11.2587 6.8062 11.5944 7.14199 11.5944 7.5562V8.25C11.5944 8.66422 11.2587 9 10.8444 9Z" fill="white"/>
<path fill-rule="evenodd" clip-rule="evenodd" d="M17.3191 7.18605C16.9971 7.44649 16.5248 7.39651 16.2644 7.07442L15.7784 6.47338C15.5179 6.15129 15.5679 5.67905 15.89 5.41861C16.2121 5.15817 16.6843 5.20815 16.9448 5.53024L17.4308 6.13128C17.6912 6.45337 17.6412 6.92561 17.3191 7.18605Z" fill="white"/>
<path fill-rule="evenodd" clip-rule="evenodd" d="M21 3.65893C20.8379 4.04011 20.3975 4.21772 20.0163 4.05563L19.209 3.71238C18.8279 3.55029 18.6503 3.10988 18.8123 2.7287C18.9744 2.34751 19.4148 2.1699 19.796 2.33199L20.6033 2.67525C20.9844 2.83734 21.162 3.27775 21 3.65893Z" fill="white"/>
</svg>
