<svg width="15" height="31" viewBox="0 0 15 31" fill="none" xmlns="http://www.w3.org/2000/svg">
<path d="M8.74822 30.1756L10.2366 28.6225C10.5075 28.3415 10.7222 28.0071 10.8682 27.6389C11.0143 27.2707 11.0889 26.8758 11.0877 26.4773L11.0884 14.5207C12.4684 13.6715 13.5424 12.3723 14.1452 10.8234C14.748 9.27445 14.846 7.5617 14.4242 5.94893C14.0023 4.33617 13.084 2.91286 11.8107 1.89825C10.5374 0.883629 8.97978 0.33399 7.37768 0.33399C5.77559 0.33399 4.21792 0.883629 2.94463 1.89825C1.67134 2.91286 0.753051 4.33617 0.331212 5.94894C-0.0906264 7.5617 0.00738657 9.27445 0.610154 10.8234C1.21292 12.3723 2.287 13.6715 3.66696 14.5207L3.66696 16.2927L5.32188 18.0195L3.26608 20.1647L5.32188 22.3099L3.66764 24.0361L3.66764 26.4773C3.66668 26.876 3.74147 27.2709 3.88767 27.6392C4.03388 28.0075 4.2486 28.342 4.51943 28.6232L6.00715 30.1756C6.37063 30.5549 6.86363 30.768 7.37768 30.768C7.89173 30.768 8.38473 30.5549 8.74822 30.1756V30.1756ZM5.88997 27.1931C5.7998 27.0991 5.72827 26.9876 5.67947 26.8647C5.63067 26.7419 5.60556 26.6103 5.60558 26.4773L5.60558 24.8741L8.06295 22.3099L6.00715 20.1647L8.06295 18.0195L5.60627 15.456L5.60627 13.2465C4.85739 12.9683 4.1757 12.5229 3.60871 11.9415C2.86328 11.1637 2.35564 10.1727 2.14997 9.09375C1.94431 8.01486 2.04986 6.89655 2.45329 5.88025C2.85671 4.86395 3.53989 3.9953 4.41642 3.38415C5.29296 2.77301 6.32348 2.44681 7.37768 2.44681C8.43188 2.44681 9.46241 2.77301 10.3389 3.38416C11.2155 3.9953 11.8987 4.86395 12.3021 5.88025C12.7055 6.89655 12.8111 8.01485 12.6054 9.09375C12.3997 10.1726 11.8921 11.1637 11.1467 11.9415C10.6177 12.5707 9.92375 13.0243 9.15047 13.2465L9.14978 26.4773C9.14887 26.7453 9.04697 27.0021 8.86608 27.1924L7.37768 28.7455L5.88997 27.1931ZM8.06295 5.14844C7.92742 5.00701 7.75474 4.9107 7.56675 4.87168C7.37876 4.83266 7.1839 4.85269 7.00682 4.92923C6.82974 5.00577 6.67838 5.13538 6.57189 5.30168C6.46541 5.46798 6.40857 5.66349 6.40857 5.8635C6.40857 6.0635 6.46541 6.25902 6.57189 6.42532C6.67838 6.59162 6.82974 6.72123 7.00682 6.79777C7.1839 6.87431 7.37876 6.89434 7.56675 6.85532C7.75474 6.8163 7.92742 6.71999 8.06295 6.57856C8.24469 6.38891 8.3468 6.1317 8.3468 5.8635C8.3468 5.5953 8.24469 5.33808 8.06295 5.14844Z" fill="#D33091"/>
</svg>
