<svg width="15" height="26" viewBox="0 0 15 26" fill="none" xmlns="http://www.w3.org/2000/svg">
<path d="M14.7285 9.13043V8.15791C14.7272 6.75578 14.2013 5.41147 13.2662 4.42001C12.3311 3.42855 11.0633 2.87095 9.74088 2.86956H8.82367V0.782608H6.85541V2.86956H5.9382C4.7546 2.8709 3.61002 3.3185 2.70906 4.13236C1.80809 4.94621 1.20945 6.07328 1.02015 7.31209C0.830843 8.55091 1.06321 9.82074 1.67572 10.8946C2.28822 11.9685 3.24094 12.7764 4.36359 13.1739L6.85541 14.0557V21.6522H5.9382C5.13766 21.6513 4.37014 21.3138 3.80408 20.7136C3.23802 20.1134 2.91966 19.2996 2.91888 18.4508V17.4783H0.950615V18.4508C0.951918 19.8529 1.47781 21.1972 2.41288 22.1887C3.34795 23.1801 4.61581 23.7377 5.9382 23.7391H6.85541V25.8261H8.82367V23.7391H9.74088C10.9245 23.7378 12.0691 23.2902 12.97 22.4763C13.871 21.6625 14.4696 20.5354 14.6589 19.2966C14.8482 18.0578 14.6159 16.788 14.0034 15.7141C13.3909 14.6402 12.4381 13.8323 11.3155 13.4348L8.82367 12.553V4.95652H9.74088C10.5414 4.95735 11.3089 5.2949 11.875 5.8951C12.4411 6.4953 12.7594 7.3091 12.7602 8.15791V9.13043H14.7285ZM10.6935 15.4132C11.3738 15.6533 11.9513 16.1422 12.3227 16.7925C12.6941 17.4428 12.8351 18.212 12.7205 18.9624C12.606 19.7129 12.2432 20.3956 11.6973 20.8884C11.1514 21.3812 10.4579 21.652 9.74088 21.6522H8.82367V14.7517L10.6935 15.4132ZM6.85541 11.857L4.98556 11.1955C4.30526 10.9554 3.72775 10.4665 3.35636 9.81619C2.98497 9.16591 2.84395 8.39672 2.95854 7.64627C3.07313 6.89582 3.43584 6.2131 3.98177 5.72029C4.5277 5.22748 5.22121 4.95674 5.9382 4.95652H6.85541V11.857Z" fill="#D33091"/>
</svg>
