<svg width="21" height="22" viewBox="0 0 21 22" fill="none" xmlns="http://www.w3.org/2000/svg">
<g clip-path="url(#clip0_84_43)">
<path d="M8.66666 0.565216H1.99999C1.26666 0.565216 0.666656 1.1913 0.666656 1.95652V8.91304C0.666656 9.67826 1.26666 10.3043 1.99999 10.3043H8.66666C9.39999 10.3043 9.99999 9.67826 9.99999 8.91304V1.95652C9.99999 1.1913 9.39999 0.565216 8.66666 0.565216ZM8.66666 8.91304H1.99999V1.95652H8.66666V8.91304Z" fill="#D33091"/>
<path d="M19.3333 0.565216H12.6666C11.9333 0.565216 11.3333 1.1913 11.3333 1.95652V8.91304C11.3333 9.67826 11.9333 10.3043 12.6666 10.3043H19.3333C20.0666 10.3043 20.6666 9.67826 20.6666 8.91304V1.95652C20.6666 1.1913 20.0666 0.565216 19.3333 0.565216ZM19.3333 8.91304H12.6666V1.95652H19.3333V8.91304Z" fill="#D33091"/>
<path d="M8.66666 11.6956H1.99999C1.26666 11.6956 0.666656 12.3217 0.666656 13.087V20.0435C0.666656 20.8087 1.26666 21.4348 1.99999 21.4348H8.66666C9.39999 21.4348 9.99999 20.8087 9.99999 20.0435V13.087C9.99999 12.3217 9.39999 11.6956 8.66666 11.6956ZM8.66666 20.0435H1.99999V13.087H8.66666V20.0435Z" fill="#D33091"/>
<path d="M20.4933 12.6H19.0933V14.1722H16.3067V12.6H14.92H12.0133V21.4348H14.92V17.08H16.2V18.527H20.4933V17.08V14.1722V12.6Z" fill="#D33091"/>
<path d="M18.0533 19.6122H16.3066V21.4348H18.0533V19.6122Z" fill="#D33091"/>
<path d="M20.4933 19.6122H18.7466V21.4348H20.4933V19.6122Z" fill="#D33091"/>
</g>
<defs>
<clipPath id="clip0_84_43">
<rect width="20" height="20.8696" fill="white" transform="translate(0.666656 0.565216)"/>
</clipPath>
</defs>
</svg>
